# xmcd CD database file
#
# Track frame offsets:
#	150
#	10912
#	24015
#	38505
#	50357
#	68672
#	78727
#	91432
#	103680
#	114177
#	127282
#	140527
#	153057
#	170015
#	182010
#	195647
#	206010
#	213997
#	228125
#	242717
#
# Disc length: 3409 seconds
#
# Revision: 2
# Processed by: cddbd v1.5.1PL0 Copyright (c) Steve Scherf et al.
# Submitted via: CDex 1.51
#
DISCID=040d4f14
DTITLE=Various Artist - Country Greats (The Sound Of Nashville) [CD2]
DYEAR=1996
DGENRE=Country
TTITLE0=Billie Jo Spears - I'm So Lonsome I Could Cry
TTITLE1=Kenny Rogers and The First Edition - Ruby Don't Take Your Love To Town
TTITLE2=Patsy Cline - Then You'll Know
TTITLE3=Waylon Jennings - Crying
TTITLE4=Boxcar Willie - Convoy
TTITLE5=Jim Reeves - Home (Live)
TTITLE6=Dolly Parton - Little Blossom
TTITLE7=Stonewall Jackson - Ol' Blue
TTITLE8=Faron Young - If You Ain't Lovin'
TTITLE9=Donna Fargo - Daddy
TTITLE10=Mickey Gilley - That Heart Belongs To Me
TTITLE11=Johnny Paycheck - Take This Job And Shove It
TTITLE12=Carl Perkins - Sweeter Than Candy
TTITLE13=Billie Jo Spears - What Have They Done To My Song Ma
TTITLE14=Kenny Rogers and The First Edition - Shine On Ruby Mountain
TTITLE15=Patsy Cline - Pick Me Up On Your Way Down
TTITLE16=Jim Reeves - Roly Poly (Live)
TTITLE17=Stonewall Jackson - Keep Off The Grass
TTITLE18=Johnny Paycheck - Green Green Grass Of Home
TTITLE19=Boxcar Willie - Truck Driving Man
EXTD=YEAR: 1996
EXTT0=
EXTT1=
EXTT2=
EXTT3=
EXTT4=
EXTT5=
EXTT6=
EXTT7=
EXTT8=
EXTT9=
EXTT10=
EXTT11=
EXTT12=
EXTT13=
EXTT14=
EXTT15=
EXTT16=
EXTT17=
EXTT18=
EXTT19=
PLAYORDER=
